<svg xmlns="http://www.w3.org/2000/svg" xmlns:xlink="http://www.w3.org/1999/xlink" width="64" zoomAndPan="magnify" viewBox="0 0 48 48" height="64" preserveAspectRatio="xMidYMid meet" version="1.0"><defs><g/><clipPath id="37df8b5e6e"><path d="M 0.488281 0 L 47.507812 0 L 47.507812 47.019531 L 0.488281 47.019531 Z M 0.488281 0 " clip-rule="nonzero"/></clipPath><clipPath id="9fb1ab6f07"><path d="M 26 1 L 38.808594 1 L 38.808594 17 L 26 17 Z M 26 1 " clip-rule="nonzero"/></clipPath><clipPath id="65c6d90fe7"><rect x="0" width="39" y="0" height="40"/></clipPath></defs><g clip-path="url(#37df8b5e6e)"><path fill="#ffffff" d="M 0.488281 0 L 47.511719 0 L 47.511719 47.019531 L 0.488281 47.019531 Z M 0.488281 0 " fill-opacity="1" fill-rule="nonzero"/><path fill="#071307" d="M 0.488281 0 L 47.511719 0 L 47.511719 47.019531 L 0.488281 47.019531 Z M 0.488281 0 " fill-opacity="1" fill-rule="nonzero"/></g><g transform="matrix(1, 0, 0, 1, 4, 6)"><g clip-path="url(#65c6d90fe7)"><g fill="#ffffff" fill-opacity="1"><g transform="translate(1.930489, 16.275609)"><g><path d="M 0.140625 -11.5 L 0.140625 -14.375 L 10.25 -14.375 L 10.25 -11.5 L 6.828125 -11.5 L 6.828125 0 L 3.546875 0 L 3.546875 -11.5 Z M 0.140625 -11.5 "/></g></g></g><g fill="#ffffff" fill-opacity="1"><g transform="translate(12.315248, 16.275609)"><g><path d="M 4.328125 -5.765625 L 4.328125 0 L 1.046875 0 L 1.046875 -14.375 L 4.328125 -14.375 L 4.328125 -8.640625 L 8.953125 -8.640625 L 8.953125 -14.375 L 12.234375 -14.375 L 12.234375 0 L 8.953125 0 L 8.953125 -5.765625 Z M 4.328125 -5.765625 "/></g></g></g><g clip-path="url(#9fb1ab6f07)"><g fill="#ffffff" fill-opacity="1"><g transform="translate(25.592403, 16.275609)"><g><path d="M 1.046875 -14.375 L 6.1875 -14.375 C 7.570312 -14.375 8.695312 -14.003906 9.5625 -13.265625 C 10.4375 -12.523438 10.875 -11.472656 10.875 -10.109375 C 10.875 -9.046875 10.609375 -8.15625 10.078125 -7.4375 C 9.546875 -6.726562 8.828125 -6.226562 7.921875 -5.9375 L 12.875 0 L 8.71875 0 L 4.328125 -5.671875 L 4.328125 0 L 1.046875 0 Z M 4.328125 -8 L 4.703125 -8 C 5.003906 -8 5.257812 -8.003906 5.46875 -8.015625 C 5.675781 -8.023438 5.910156 -8.0625 6.171875 -8.125 C 6.441406 -8.195312 6.660156 -8.296875 6.828125 -8.421875 C 6.992188 -8.554688 7.132812 -8.742188 7.25 -8.984375 C 7.363281 -9.234375 7.421875 -9.53125 7.421875 -9.875 C 7.421875 -10.226562 7.363281 -10.523438 7.25 -10.765625 C 7.132812 -11.003906 6.992188 -11.1875 6.828125 -11.3125 C 6.660156 -11.445312 6.441406 -11.546875 6.171875 -11.609375 C 5.910156 -11.679688 5.675781 -11.722656 5.46875 -11.734375 C 5.257812 -11.753906 5.003906 -11.765625 4.703125 -11.765625 L 4.328125 -11.765625 Z M 4.328125 -8 "/></g></g></g></g><g fill="#ffffff" fill-opacity="1"><g transform="translate(1.704178, 32.797031)"><g><path d="M -0.515625 -14.375 L 3.421875 -14.375 L 6.40625 -9.78125 L 9.40625 -14.375 L 13.34375 -14.375 L 8.046875 -6.453125 L 8.046875 0 L 4.78125 0 L 4.78125 -6.453125 Z M -0.515625 -14.375 "/></g></g></g><g fill="#ffffff" fill-opacity="1"><g transform="translate(14.528311, 32.797031)"><g><path d="M 5.546875 0 L -0.484375 -14.375 L 3.203125 -14.375 L 6.828125 -4.9375 L 10.453125 -14.375 L 14.140625 -14.375 L 8.125 0 Z M 5.546875 0 "/></g></g></g><g fill="#ffffff" fill-opacity="1"><g transform="translate(28.188799, 32.797031)"><g><path d="M 9.265625 -14.375 L 9.265625 -11.5 L 4.328125 -11.5 L 4.328125 -8.640625 L 9.0625 -8.640625 L 9.0625 -5.765625 L 4.328125 -5.765625 L 4.328125 -2.875 L 9.265625 -2.875 L 9.265625 0 L 1.046875 0 L 1.046875 -14.375 Z M 9.265625 -14.375 "/></g></g></g></g></g></svg>